solid "Object-0"; Produced by Art of Illusion 2.7, Mon Dec 14 17:31:18 EST 2009
facet normal  0 0 -1
  outer loop
    vertex  -112.076315917969 -8.038084754944 -99.11097076416
    vertex  -113.438895263672 -8.948529968262 -99.11097076416
    vertex  -114.918692626953 -3.949628601074 -99.11097076416
  endloop
endfacet
facet normal  0 0 1
  outer loop
    vertex  -77.031268157959 -3.949628601074 -88.988099365234
    vertex  -74.860951461792 -9.88584400177 -88.988099365234
    vertex  -74.019047775269 -9.718378791809 -88.988099365234
  endloop
endfacet
facet normal  0 -0 1
  outer loop
    vertex  -106.269049682617 -11.918378601074 -88.988099365234
    vertex  -106.588755645752 -13.525648841858 -88.988099365234
    vertex  -90.219050445557 -11.918378601074 -88.988099365234
  endloop
endfacet
facet normal  0 1 0
  outer loop
    vertex  -46.79484752655 -3.949628601074 -99.11097076416
    vertex  -114.918692626953 -3.949628601074 -99.11097076416
    vertex  -81.019049682617 -3.949628601074 -93.049535064697
  endloop
endfacet
facet normal  0 0 -1
  outer loop
    vertex  -55.449342765808 -13.525648841858 -99.11097076416
    vertex  -71.986514129639 -12.760282287598 -99.11097076416
    vertex  -71.819048919678 -11.918378601074 -99.11097076416
  endloop
endfacet
facet normal  -0 0 1
  outer loop
    vertex  -85.986514129639 -12.760282287598 -88.988099365234
    vertex  -86.463412322998 -13.474013576508 -88.988099365234
    vertex  -85.006827392578 -19.887128601074 -88.988099365234
  endloop
endfacet
facet normal  -1 0 -0
  outer loop
    vertex  -118.998099365234 -8.029034385681 -99.11097076416
    vertex  -118.998099365234 -16.132281074524 -88.988099365234
    vertex  -118.998099365234 -8.029034385681 -88.988099365234
  endloop
endfacet
facet normal  -0 0 1
  outer loop
    vertex  -118.998099365234 -8.029034385681 -88.988099365234
    vertex  -113.438895263672 -8.948529968262 -88.988099365234
    vertex  -112.076315917969 -8.038084754944 -88.988099365234
  endloop
endfacet
facet normal  -0.195090426554 0.980785259609 -0
  outer loop
    vertex  -51.569048919678 -16.118378648758 -88.988099365234
    vertex  -49.961778202057 -15.798672447205 -99.11097076416
    vertex  -51.569048919678 -16.118378648758 -99.11097076416
  endloop
endfacet
facet normal  -0.195090386034 0.980785267669 -0
  outer loop
    vertex  -73.177145996094 -13.950913677216 -99.11097076416
    vertex  -74.019047775269 -14.118378410339 -88.988099365234
    vertex  -73.177145996094 -13.950913677216 -88.988099365234
  endloop
endfacet
facet normal  -1 0 -0
  outer loop
    vertex  -118.998099365234 -16.132281074524 -99.11097076416
    vertex  -118.998099365234 -16.132281074524 -88.988099365234
    vertex  -118.998099365234 -8.029034385681 -99.11097076416
  endloop
endfacet
facet normal  -0.980785276372 -0.19509034228 -0
  outer loop
    vertex  -47.68875459671 -10.311108360291 -99.11097076416
    vertex  -47.369048633575 -11.918378601074 -88.988099365234
    vertex  -47.68875459671 -10.311108360291 -88.988099365234
  endloop
endfacet
facet normal  0 0 -1
  outer loop
    vertex  -110.469046630859 -7.718378791809 -99.11097076416
    vertex  -112.076315917969 -8.038084754944 -99.11097076416
    vertex  -114.918692626953 -3.949628601074 -99.11097076416
  endloop
endfacet
facet normal  0.555569996467 -0.831469770362 0
  outer loop
    vertex  -53.176319160461 -8.038084754944 -88.988099365234
    vertex  -54.53889755249 -8.948529968262 -99.11097076416
    vertex  -53.176319160461 -8.038084754944 -99.11097076416
  endloop
endfacet
facet normal  0 0 -1
  outer loop
    vertex  -55.769048728943 -11.918378601074 -99.11097076416
    vertex  -71.986514129639 -11.076474914551 -99.11097076416
    vertex  -55.449342765808 -10.311108360291 -99.11097076416
  endloop
endfacet
facet normal  -0 -1 -0
  outer loop
    vertex  -77.019049682617 -19.887128601074 -89.049535005093
    vertex  -77.323531188965 -19.887128601074 -90.580268769264
    vertex  -47.11940530777 -19.887128601074 -88.988099365234
  endloop
endfacet
facet normal  -0.831469558357 0.555570313755 -0
  outer loop
    vertex  -71.986514129639 -12.760282287598 -99.11097076416
    vertex  -72.463414230347 -13.474013576508 -88.988099365234
    vertex  -71.986514129639 -12.760282287598 -88.988099365234
  endloop
endfacet
facet normal  0.831468531932 0.555571849905 0
  outer loop
    vertex  -75.574683227539 -13.474013576508 -88.988099365234
    vertex  -75.574683227539 -13.474013576508 -99.11097076416
    vertex  -76.051585235596 -12.760282287598 -88.988099365234
  endloop
endfacet
facet normal  -0.707106698534 0.707106863839 -0
  outer loop
    vertex  -114.918692626953 -3.949628601074 -88.988099365234
    vertex  -114.918692626953 -3.949628601074 -99.11097076416
    vertex  -118.998099365234 -8.029034385681 -99.11097076416
  endloop
endfacet
facet normal  -0 -0 1
  outer loop
    vertex  -74.860951461792 -13.950913677216 -88.988099365234
    vertex  -75.574683227539 -13.474013576508 -88.988099365234
    vertex  -77.031268157959 -19.887128601074 -88.988099365234
  endloop
endfacet
facet normal  -0.195090593581 0.980785226385 -0
  outer loop
    vertex  -108.86177734375 -15.798672447205 -88.988099365234
    vertex  -108.86177734375 -15.798672447205 -99.11097076416
    vertex  -110.469046630859 -16.118378648758 -88.988099365234
  endloop
endfacet
facet normal  0 0 1
  outer loop
    vertex  -85.006827392578 -3.949628601074 -88.988099365234
    vertex  -86.463412322998 -10.362744102478 -88.988099365234
    vertex  -85.006827392578 -11.081663856506 -88.988099365234
  endloop
endfacet
facet normal  0 0 1
  outer loop
    vertex  -49.961778202057 -15.798672447205 -88.988099365234
    vertex  -43.04 -15.807723293304 -88.988099365234
    vertex  -48.599200286865 -14.888227233887 -88.988099365234
  endloop
endfacet
facet normal  -0.83146963595 0.555570197629 -0
  outer loop
    vertex  -48.599200286865 -14.888227233887 -88.988099365234
    vertex  -47.68875459671 -13.525648841858 -99.11097076416
    vertex  -48.599200286865 -14.888227233887 -99.11097076416
  endloop
endfacet
facet normal  0 0 -1
  outer loop
    vertex  -76.051585235596 -11.076474914551 -99.11097076416
    vertex  -85.986514129639 -11.076474914551 -99.11097076416
    vertex  -75.574683227539 -10.362744102478 -99.11097076416
  endloop
endfacet
facet normal  -0.980785245949 0.19509049523 -0
  outer loop
    vertex  -71.819048919678 -11.918378601074 -99.11097076416
    vertex  -71.986514129639 -12.760282287598 -88.988099365234
    vertex  -71.819048919678 -11.918378601074 -88.988099365234
  endloop
endfacet
facet normal  0 0 -1
  outer loop
    vertex  -112.076315917969 -15.798672447205 -99.11097076416
    vertex  -118.998099365234 -16.132281074524 -99.11097076416
    vertex  -113.438895263672 -14.888227233887 -99.11097076416
  endloop
endfacet
facet normal  0.707106781187 -0.707106781187 0
  outer loop
    vertex  -47.11940530777 -19.887128601074 -88.988099365234
    vertex  -43.04 -15.807723293304 -99.11097076416
    vertex  -43.04 -15.807723293304 -88.988099365234
  endloop
endfacet
facet normal  -0.980785245949 0.19509049523 -0
  outer loop
    vertex  -85.986514129639 -12.760282287598 -88.988099365234
    vertex  -85.819048919678 -11.918378601074 -99.11097076416
    vertex  -85.986514129639 -12.760282287598 -99.11097076416
  endloop
endfacet
facet normal  0.831468531932 0.555571849905 0
  outer loop
    vertex  -90.051585235596 -12.760282287598 -99.11097076416
    vertex  -90.051585235596 -12.760282287598 -88.988099365234
    vertex  -89.574683227539 -13.474013576508 -88.988099365234
  endloop
endfacet
facet normal  -0 0 1
  outer loop
    vertex  -110.469046630859 -16.118378648758 -88.988099365234
    vertex  -115.243247070312 -19.887128601074 -88.988099365234
    vertex  -108.86177734375 -15.798672447205 -88.988099365234
  endloop
endfacet
facet normal  0.555569727641 -0.831469949985 0
  outer loop
    vertex  -113.438895263672 -8.948529968262 -88.988099365234
    vertex  -113.438895263672 -8.948529968262 -99.11097076416
    vertex  -112.076315917969 -8.038084754944 -99.11097076416
  endloop
endfacet
facet normal  -0.707106698534 0.707106863839 -0
  outer loop
    vertex  -114.918692626953 -3.949628601074 -88.988099365234
    vertex  -118.998099365234 -8.029034385681 -99.11097076416
    vertex  -118.998099365234 -8.029034385681 -88.988099365234
  endloop
endfacet
facet normal  0 0 -1
  outer loop
    vertex  -55.769048728943 -11.918378601074 -99.11097076416
    vertex  -55.449342765808 -13.525648841858 -99.11097076416
    vertex  -71.819048919678 -11.918378601074 -99.11097076416
  endloop
endfacet
facet normal  -0 -1 0
  outer loop
    vertex  -85.019049682617 -19.887128601074 -89.049535005093
    vertex  -85.006827392578 -19.887128601074 -88.988099365234
    vertex  -115.243247070312 -19.887128601074 -88.988099365234
  endloop
endfacet
facet normal  0.707106781187 -0.707106781187 0
  outer loop
    vertex  -43.04 -15.807723293304 -99.11097076416
    vertex  -47.11940530777 -19.887128601074 -88.988099365234
    vertex  -47.11940530777 -19.887128601074 -99.11097076416
  endloop
endfacet
facet normal  0 0 -1
  outer loop
    vertex  -55.769048728943 -11.918378601074 -99.11097076416
    vertex  -71.819048919678 -11.918378601074 -99.11097076416
    vertex  -71.986514129639 -11.076474914551 -99.11097076416
  endloop
endfacet
facet normal  0.980779227236 -0 -0.195120750874
  outer loop
    vertex  -85.006827392578 -3.949628601074 -88.988099365234
    vertex  -85.006827392578 -11.081663856506 -88.988099365234
    vertex  -85.019049682617 -3.949628601074 -89.049535005093
  endloop
endfacet
facet normal  -0.980785325827 0 0.195090093654
  outer loop
    vertex  -77.323531188965 -3.949628601074 -90.580268769264
    vertex  -77.323531188965 -19.887128601074 -90.580268769264
    vertex  -77.019049682617 -3.949628601074 -89.049535005093
  endloop
endfacet
facet normal  -0.83146963595 0.555570197629 -0
  outer loop
    vertex  -47.68875459671 -13.525648841858 -88.988099365234
    vertex  -47.68875459671 -13.525648841858 -99.11097076416
    vertex  -48.599200286865 -14.888227233887 -88.988099365234
  endloop
endfacet
facet normal  0 0 -1
  outer loop
    vertex  -106.588755645752 -13.525648841858 -99.11097076416
    vertex  -106.269049682617 -11.918378601074 -99.11097076416
    vertex  -90.051585235596 -12.760282287598 -99.11097076416
  endloop
endfacet
facet normal  -0.980785325827 0 0.195090093654
  outer loop
    vertex  -77.019049682617 -3.949628601074 -89.049535005093
    vertex  -77.323531188965 -19.887128601074 -90.580268769264
    vertex  -77.019049682617 -19.887128601074 -89.049535005093
  endloop
endfacet
facet normal  0.19509049523 -0.980785245949 0
  outer loop
    vertex  -88.019049682617 -9.718378791809 -88.988099365234
    vertex  -88.860953369141 -9.88584400177 -99.11097076416
    vertex  -88.019049682617 -9.718378791809 -99.11097076416
  endloop
endfacet
facet normal  0 0 -1
  outer loop
    vertex  -76.219050445557 -11.918378601074 -99.11097076416
    vertex  -85.986514129639 -11.076474914551 -99.11097076416
    vertex  -76.051585235596 -11.076474914551 -99.11097076416
  endloop
endfacet
facet normal  0.831469501537 -0.555570398792 0
  outer loop
    vertex  -114.349341430664 -10.311108360291 -88.988099365234
    vertex  -114.349341430664 -10.311108360291 -99.11097076416
    vertex  -113.438895263672 -8.948529968262 -88.988099365234
  endloop
endfacet
facet normal  -0.555570811082 0 0.831469226053
  outer loop
    vertex  -79.488314666748 -19.887128601074 -92.745053081512
    vertex  -78.190623321533 -3.949628601074 -91.877962141037
    vertex  -79.488314666748 -3.949628601074 -92.745053081512
  endloop
endfacet
facet normal  -0 -1 -0
  outer loop
    vertex  -77.031268157959 -19.887128601074 -88.988099365234
    vertex  -77.019049682617 -19.887128601074 -89.049535005093
    vertex  -47.11940530777 -19.887128601074 -88.988099365234
  endloop
endfacet
facet normal  0 0 -1
  outer loop
    vertex  -114.918692626953 -3.949628601074 -99.11097076416
    vertex  -108.86177734375 -8.038084754944 -99.11097076416
    vertex  -110.469046630859 -7.718378791809 -99.11097076416
  endloop
endfacet
facet normal  0.831469770362 -0.555569996467 0
  outer loop
    vertex  -55.449342765808 -10.311108360291 -88.988099365234
    vertex  -55.449342765808 -10.311108360291 -99.11097076416
    vertex  -54.53889755249 -8.948529968262 -88.988099365234
  endloop
endfacet
facet normal  0 1 0
  outer loop
    vertex  -85.006827392578 -3.949628601074 -88.988099365234
    vertex  -85.019049682617 -3.949628601074 -89.049535005093
    vertex  -114.918692626953 -3.949628601074 -88.988099365234
  endloop
endfacet
facet normal  0.980779227236 -0 -0.195120750874
  outer loop
    vertex  -85.019049682617 -19.887128601074 -89.049535005093
    vertex  -85.006827392578 -11.081663856506 -88.988099365234
    vertex  -85.006827392578 -19.887128601074 -88.988099365234
  endloop
endfacet
facet normal  -0 -0 1
  outer loop
    vertex  -118.998099365234 -8.029034385681 -88.988099365234
    vertex  -114.669051208496 -11.918378601074 -88.988099365234
    vertex  -114.349341430664 -10.311108360291 -88.988099365234
  endloop
endfacet
facet normal  -0.195090234093 0 0.980785297892
  outer loop
    vertex  -79.488314666748 -3.949628601074 -92.745053081512
    vertex  -81.019049682617 -19.887128601074 -93.049535064697
    vertex  -79.488314666748 -19.887128601074 -92.745053081512
  endloop
endfacet
facet normal  -0 0 1
  outer loop
    vertex  -76.219050445557 -11.918378601074 -88.988099365234
    vertex  -77.031268157959 -19.887128601074 -88.988099365234
    vertex  -76.051585235596 -12.760282287598 -88.988099365234
  endloop
endfacet
facet normal  -0 0 1
  outer loop
    vertex  -43.04 -15.807723293304 -88.988099365234
    vertex  -47.68875459671 -13.525648841858 -88.988099365234
    vertex  -48.599200286865 -14.888227233887 -88.988099365234
  endloop
endfacet
facet normal  0 1 0
  outer loop
    vertex  -77.019049682617 -3.949628601074 -89.049535005093
    vertex  -46.79484752655 -3.949628601074 -88.988099365234
    vertex  -77.323531188965 -3.949628601074 -90.580268769264
  endloop
endfacet
facet normal  0.831468531932 0.555571849905 0
  outer loop
    vertex  -90.051585235596 -12.760282287598 -99.11097076416
    vertex  -89.574683227539 -13.474013576508 -88.988099365234
    vertex  -89.574683227539 -13.474013576508 -99.11097076416
  endloop
endfacet
facet normal  0.831468531932 0.555571849905 0
  outer loop
    vertex  -76.051585235596 -12.760282287598 -99.11097076416
    vertex  -76.051585235596 -12.760282287598 -88.988099365234
    vertex  -75.574683227539 -13.474013576508 -99.11097076416
  endloop
endfacet
facet normal  0.555569996467 -0.831469770362 0
  outer loop
    vertex  -54.53889755249 -8.948529968262 -88.988099365234
    vertex  -54.53889755249 -8.948529968262 -99.11097076416
    vertex  -53.176319160461 -8.038084754944 -88.988099365234
  endloop
endfacet
facet normal  0 0 1
  outer loop
    vertex  -47.11940530777 -19.887128601074 -88.988099365234
    vertex  -49.961778202057 -15.798672447205 -88.988099365234
    vertex  -51.569048919678 -16.118378648758 -88.988099365234
  endloop
endfacet
facet normal  0 0 1
  outer loop
    vertex  -47.11940530777 -19.887128601074 -88.988099365234
    vertex  -43.04 -15.807723293304 -88.988099365234
    vertex  -49.961778202057 -15.798672447205 -88.988099365234
  endloop
endfacet
facet normal  0 0 1
  outer loop
    vertex  -77.031268157959 -3.949628601074 -88.988099365234
    vertex  -74.019047775269 -9.718378791809 -88.988099365234
    vertex  -73.177145996094 -9.88584400177 -88.988099365234
  endloop
endfacet
facet normal  -0 0 1
  outer loop
    vertex  -85.006827392578 -11.081663856506 -88.988099365234
    vertex  -85.819048919678 -11.918378601074 -88.988099365234
    vertex  -85.986514129639 -12.760282287598 -88.988099365234
  endloop
endfacet
facet normal  0.980785325827 -0 0.195090093654
  outer loop
    vertex  -85.019049682617 -3.949628601074 -89.049535005093
    vertex  -85.019049682617 -19.887128601074 -89.049535005093
    vertex  -84.71456817627 -3.949628601074 -90.580268769264
  endloop
endfacet
facet normal  -0 -0 1
  outer loop
    vertex  -77.031268157959 -19.887128601074 -88.988099365234
    vertex  -47.11940530777 -19.887128601074 -88.988099365234
    vertex  -73.177145996094 -13.950913677216 -88.988099365234
  endloop
endfacet
facet normal  0.980785245949 -0.19509049523 0
  outer loop
    vertex  -90.051585235596 -11.076474914551 -99.11097076416
    vertex  -90.051585235596 -11.076474914551 -88.988099365234
    vertex  -90.219050445557 -11.918378601074 -88.988099365234
  endloop
endfacet
facet normal  0 -0 1
  outer loop
    vertex  -115.243247070312 -19.887128601074 -88.988099365234
    vertex  -110.469046630859 -16.118378648758 -88.988099365234
    vertex  -112.076315917969 -15.798672447205 -88.988099365234
  endloop
endfacet
facet normal  0 0 -1
  outer loop
    vertex  -49.961778202057 -8.038084754944 -99.11097076416
    vertex  -43.04 -7.704476127625 -99.11097076416
    vertex  -48.599200286865 -8.948529968262 -99.11097076416
  endloop
endfacet
facet normal  0 0 -1
  outer loop
    vertex  -48.599200286865 -8.948529968262 -99.11097076416
    vertex  -43.04 -7.704476127625 -99.11097076416
    vertex  -47.68875459671 -10.311108360291 -99.11097076416
  endloop
endfacet
facet normal  -0.831469558357 0.555570313755 -0
  outer loop
    vertex  -72.463414230347 -13.474013576508 -88.988099365234
    vertex  -71.986514129639 -12.760282287598 -99.11097076416
    vertex  -72.463414230347 -13.474013576508 -99.11097076416
  endloop
endfacet
facet normal  0 0 -1
  outer loop
    vertex  -108.86177734375 -15.798672447205 -99.11097076416
    vertex  -115.243247070312 -19.887128601074 -99.11097076416
    vertex  -110.469046630859 -16.118378648758 -99.11097076416
  endloop
endfacet
facet normal  0 0 -1
  outer loop
    vertex  -115.243247070312 -19.887128601074 -99.11097076416
    vertex  -112.076315917969 -15.798672447205 -99.11097076416
    vertex  -110.469046630859 -16.118378648758 -99.11097076416
  endloop
endfacet
facet normal  0 0 -1
  outer loop
    vertex  -115.243247070312 -19.887128601074 -99.11097076416
    vertex  -118.998099365234 -16.132281074524 -99.11097076416
    vertex  -112.076315917969 -15.798672447205 -99.11097076416
  endloop
endfacet
facet normal  0.555569727641 0.831469949985 0
  outer loop
    vertex  -112.076315917969 -15.798672447205 -99.11097076416
    vertex  -113.438895263672 -14.888227233887 -88.988099365234
    vertex  -112.076315917969 -15.798672447205 -88.988099365234
  endloop
endfacet
facet normal  0.980785325827 -0 0.195090093654
  outer loop
    vertex  -85.019049682617 -19.887128601074 -89.049535005093
    vertex  -84.71456817627 -19.887128601074 -90.580268769264
    vertex  -84.71456817627 -3.949628601074 -90.580268769264
  endloop
endfacet
facet normal  -0.555570057149 0.831469729816 -0
  outer loop
    vertex  -73.177145996094 -13.950913677216 -99.11097076416
    vertex  -73.177145996094 -13.950913677216 -88.988099365234
    vertex  -72.463414230347 -13.474013576508 -99.11097076416
  endloop
endfacet
facet normal  0 0 1
  outer loop
    vertex  -55.449342765808 -13.525648841858 -88.988099365234
    vertex  -71.986514129639 -12.760282287598 -88.988099365234
    vertex  -54.53889755249 -14.888227233887 -88.988099365234
  endloop
endfacet
facet normal  -0.195090386034 0.980785267669 -0
  outer loop
    vertex  -74.019047775269 -14.118378410339 -88.988099365234
    vertex  -73.177145996094 -13.950913677216 -99.11097076416
    vertex  -74.019047775269 -14.118378410339 -99.11097076416
  endloop
endfacet
facet normal  -0 -0 1
  outer loop
    vertex  -74.019047775269 -14.118378410339 -88.988099365234
    vertex  -74.860951461792 -13.950913677216 -88.988099365234
    vertex  -77.031268157959 -19.887128601074 -88.988099365234
  endloop
endfacet
facet normal  -0.980785245949 0.19509049523 -0
  outer loop
    vertex  -85.986514129639 -12.760282287598 -88.988099365234
    vertex  -85.819048919678 -11.918378601074 -88.988099365234
    vertex  -85.819048919678 -11.918378601074 -99.11097076416
  endloop
endfacet
facet normal  0 0 1
  outer loop
    vertex  -85.006827392578 -19.887128601074 -88.988099365234
    vertex  -86.463412322998 -13.474013576508 -88.988099365234
    vertex  -87.177145996094 -13.950913677216 -88.988099365234
  endloop
endfacet
facet normal  0.831469274005 -0 0.555570739317
  outer loop
    vertex  -84.71456817627 -19.887128601074 -90.580268769264
    vertex  -83.847476043701 -3.949628601074 -91.877962141037
    vertex  -84.71456817627 -3.949628601074 -90.580268769264
  endloop
endfacet
facet normal  0.555569682015 -0 0.831469980472
  outer loop
    vertex  -82.549780883789 -3.949628601074 -92.745053081512
    vertex  -83.847476043701 -19.887128601074 -91.877962141037
    vertex  -82.549780883789 -19.887128601074 -92.745053081512
  endloop
endfacet
facet normal  -0.195090593581 0.980785226385 -0
  outer loop
    vertex  -108.86177734375 -15.798672447205 -99.11097076416
    vertex  -110.469046630859 -16.118378648758 -99.11097076416
    vertex  -110.469046630859 -16.118378648758 -88.988099365234
  endloop
endfacet
facet normal  0.980785245949 -0.19509049523 0
  outer loop
    vertex  -90.051585235596 -11.076474914551 -99.11097076416
    vertex  -90.219050445557 -11.918378601074 -88.988099365234
    vertex  -90.219050445557 -11.918378601074 -99.11097076416
  endloop
endfacet
facet normal  0 0 1
  outer loop
    vertex  -106.588755645752 -10.311108360291 -88.988099365234
    vertex  -90.051585235596 -11.076474914551 -88.988099365234
    vertex  -107.499197998047 -8.948529968262 -88.988099365234
  endloop
endfacet
facet normal  -0 0 1
  outer loop
    vertex  -85.819048919678 -11.918378601074 -88.988099365234
    vertex  -85.006827392578 -11.081663856506 -88.988099365234
    vertex  -85.986514129639 -11.076474914551 -88.988099365234
  endloop
endfacet
facet normal  0.831468360473 -0.555572106511 0
  outer loop
    vertex  -76.051585235596 -11.076474914551 -88.988099365234
    vertex  -76.051585235596 -11.076474914551 -99.11097076416
    vertex  -75.574683227539 -10.362744102478 -88.988099365234
  endloop
endfacet
facet normal  0.831468360473 -0.555572106511 0
  outer loop
    vertex  -75.574683227539 -10.362744102478 -99.11097076416
    vertex  -75.574683227539 -10.362744102478 -88.988099365234
    vertex  -76.051585235596 -11.076474914551 -99.11097076416
  endloop
endfacet
facet normal  0.19509049523 -0.980785245949 0
  outer loop
    vertex  -88.860953369141 -9.88584400177 -99.11097076416
    vertex  -88.019049682617 -9.718378791809 -88.988099365234
    vertex  -88.860953369141 -9.88584400177 -88.988099365234
  endloop
endfacet
facet normal  0 0 -1
  outer loop
    vertex  -113.438895263672 -14.888227233887 -99.11097076416
    vertex  -118.998099365234 -16.132281074524 -99.11097076416
    vertex  -114.349341430664 -13.525648841858 -99.11097076416
  endloop
endfacet
facet normal  0.555569682015 -0 0.831469980472
  outer loop
    vertex  -83.847476043701 -19.887128601074 -91.877962141037
    vertex  -82.549780883789 -3.949628601074 -92.745053081512
    vertex  -83.847476043701 -3.949628601074 -91.877962141037
  endloop
endfacet
facet normal  0.555569727641 0.831469949985 0
  outer loop
    vertex  -113.438895263672 -14.888227233887 -88.988099365234
    vertex  -112.076315917969 -15.798672447205 -99.11097076416
    vertex  -113.438895263672 -14.888227233887 -99.11097076416
  endloop
endfacet
facet normal  0 1 0
  outer loop
    vertex  -85.019049682617 -3.949628601074 -89.049535005093
    vertex  -84.71456817627 -3.949628601074 -90.580268769264
    vertex  -114.918692626953 -3.949628601074 -88.988099365234
  endloop
endfacet
facet normal  -0.980785245949 -0.19509049523 -0
  outer loop
    vertex  -71.819048919678 -11.918378601074 -99.11097076416
    vertex  -71.819048919678 -11.918378601074 -88.988099365234
    vertex  -71.986514129639 -11.076474914551 -88.988099365234
  endloop
endfacet
facet normal  -0.555570130879 0.831469680551 -0
  outer loop
    vertex  -48.599200286865 -14.888227233887 -88.988099365234
    vertex  -48.599200286865 -14.888227233887 -99.11097076416
    vertex  -49.961778202057 -15.798672447205 -88.988099365234
  endloop
endfacet
facet normal  0.980779227236 -0 -0.195120750874
  outer loop
    vertex  -85.019049682617 -19.887128601074 -89.049535005093
    vertex  -85.019049682617 -3.949628601074 -89.049535005093
    vertex  -85.006827392578 -11.081663856506 -88.988099365234
  endloop
endfacet
facet normal  0.195089960875 0.980785352239 0
  outer loop
    vertex  -74.019047775269 -14.118378410339 -99.11097076416
    vertex  -74.860951461792 -13.950913677216 -88.988099365234
    vertex  -74.019047775269 -14.118378410339 -88.988099365234
  endloop
endfacet
facet normal  -0 -0 1
  outer loop
    vertex  -47.11940530777 -19.887128601074 -88.988099365234
    vertex  -51.569048919678 -16.118378648758 -88.988099365234
    vertex  -53.176319160461 -15.798672447205 -88.988099365234
  endloop
endfacet
facet normal  0 0 1
  outer loop
    vertex  -77.031268157959 -3.949628601074 -88.988099365234
    vertex  -76.219050445557 -11.918378601074 -88.988099365234
    vertex  -76.051585235596 -11.076474914551 -88.988099365234
  endloop
endfacet
facet normal  -0 0 1
  outer loop
    vertex  -77.031268157959 -3.949628601074 -88.988099365234
    vertex  -77.031268157959 -19.887128601074 -88.988099365234
    vertex  -76.219050445557 -11.918378601074 -88.988099365234
  endloop
endfacet
facet normal  0 -0 1
  outer loop
    vertex  -46.79484752655 -3.949628601074 -88.988099365234
    vertex  -51.569048919678 -7.718378791809 -88.988099365234
    vertex  -49.961778202057 -8.038084754944 -88.988099365234
  endloop
endfacet
facet normal  -0 -0 1
  outer loop
    vertex  -47.68875459671 -13.525648841858 -88.988099365234
    vertex  -43.04 -15.807723293304 -88.988099365234
    vertex  -47.369048633575 -11.918378601074 -88.988099365234
  endloop
endfacet
facet normal  -0 -0 1
  outer loop
    vertex  -87.177145996094 -13.950913677216 -88.988099365234
    vertex  -88.019049682617 -14.118378410339 -88.988099365234
    vertex  -85.006827392578 -19.887128601074 -88.988099365234
  endloop
endfacet
facet normal  -0 -0 1
  outer loop
    vertex  -55.449342765808 -13.525648841858 -88.988099365234
    vertex  -55.769048728943 -11.918378601074 -88.988099365234
    vertex  -71.986514129639 -12.760282287598 -88.988099365234
  endloop
endfacet
facet normal  -0.555570057149 0.831469729816 -0
  outer loop
    vertex  -72.463414230347 -13.474013576508 -99.11097076416
    vertex  -73.177145996094 -13.950913677216 -88.988099365234
    vertex  -72.463414230347 -13.474013576508 -88.988099365234
  endloop
endfacet
facet normal  -0.831469274005 0 0.555570739317
  outer loop
    vertex  -78.190623321533 -19.887128601074 -91.877962141037
    vertex  -77.323531188965 -3.949628601074 -90.580268769264
    vertex  -78.190623321533 -3.949628601074 -91.877962141037
  endloop
endfacet
facet normal  0 1 0
  outer loop
    vertex  -77.019049682617 -3.949628601074 -89.049535005093
    vertex  -77.031268157959 -3.949628601074 -88.988099365234
    vertex  -46.79484752655 -3.949628601074 -88.988099365234
  endloop
endfacet
facet normal  -0 -0 1
  outer loop
    vertex  -77.031268157959 -3.949628601074 -88.988099365234
    vertex  -75.574683227539 -10.362744102478 -88.988099365234
    vertex  -74.860951461792 -9.88584400177 -88.988099365234
  endloop
endfacet
facet normal  0.831469501537 -0.555570398792 0
  outer loop
    vertex  -113.438895263672 -8.948529968262 -88.988099365234
    vertex  -114.349341430664 -10.311108360291 -99.11097076416
    vertex  -113.438895263672 -8.948529968262 -99.11097076416
  endloop
endfacet
facet normal  -0 0 1
  outer loop
    vertex  -118.998099365234 -8.029034385681 -88.988099365234
    vertex  -114.349341430664 -10.311108360291 -88.988099365234
    vertex  -113.438895263672 -8.948529968262 -88.988099365234
  endloop
endfacet
facet normal  0 0 1
  outer loop
    vertex  -85.006827392578 -19.887128601074 -88.988099365234
    vertex  -85.006827392578 -11.081663856506 -88.988099365234
    vertex  -85.986514129639 -12.760282287598 -88.988099365234
  endloop
endfacet
facet normal  -0 -1 -0
  outer loop
    vertex  -85.019049682617 -19.887128601074 -89.049535005093
    vertex  -115.243247070312 -19.887128601074 -88.988099365234
    vertex  -84.71456817627 -19.887128601074 -90.580268769264
  endloop
endfacet
facet normal  -0.555570130879 0.831469680551 -0
  outer loop
    vertex  -49.961778202057 -15.798672447205 -88.988099365234
    vertex  -48.599200286865 -14.888227233887 -99.11097076416
    vertex  -49.961778202057 -15.798672447205 -99.11097076416
  endloop
endfacet
facet normal  0.195089960875 0.980785352239 0
  outer loop
    vertex  -74.860951461792 -13.950913677216 -88.988099365234
    vertex  -74.019047775269 -14.118378410339 -99.11097076416
    vertex  -74.860951461792 -13.950913677216 -99.11097076416
  endloop
endfacet
facet normal  -0.980785245949 -0.19509049523 -0
  outer loop
    vertex  -71.986514129639 -11.076474914551 -99.11097076416
    vertex  -71.819048919678 -11.918378601074 -99.11097076416
    vertex  -71.986514129639 -11.076474914551 -88.988099365234
  endloop
endfacet
facet normal  0 0 -1
  outer loop
    vertex  -51.569048919678 -16.118378648758 -99.11097076416
    vertex  -49.961778202057 -15.798672447205 -99.11097076416
    vertex  -47.11940530777 -19.887128601074 -99.11097076416
  endloop
endfacet
facet normal  0 0 -1
  outer loop
    vertex  -47.68875459671 -10.311108360291 -99.11097076416
    vertex  -43.04 -7.704476127625 -99.11097076416
    vertex  -47.369048633575 -11.918378601074 -99.11097076416
  endloop
endfacet
facet normal  0 0 -1
  outer loop
    vertex  -47.11940530777 -19.887128601074 -99.11097076416
    vertex  -115.243247070312 -19.887128601074 -99.11097076416
    vertex  -88.019049682617 -14.118378410339 -99.11097076416
  endloop
endfacet
facet normal  -0.831470584782 0.555568777599 -0
  outer loop
    vertex  -85.986514129639 -12.760282287598 -88.988099365234
    vertex  -85.986514129639 -12.760282287598 -99.11097076416
    vertex  -86.463412322998 -13.474013576508 -88.988099365234
  endloop
endfacet
facet normal  0.555569727641 -0.831469949985 0
  outer loop
    vertex  -112.076315917969 -8.038084754944 -99.11097076416
    vertex  -112.076315917969 -8.038084754944 -88.988099365234
    vertex  -113.438895263672 -8.948529968262 -88.988099365234
  endloop
endfacet
facet normal  0 -0 1
  outer loop
    vertex  -88.019049682617 -9.718378791809 -88.988099365234
    vertex  -87.177145996094 -9.88584400177 -88.988099365234
    vertex  -85.006827392578 -3.949628601074 -88.988099365234
  endloop
endfacet
facet normal  0.19509049523 -0.980785245949 0
  outer loop
    vertex  -74.019047775269 -9.718378791809 -88.988099365234
    vertex  -74.860951461792 -9.88584400177 -99.11097076416
    vertex  -74.019047775269 -9.718378791809 -99.11097076416
  endloop
endfacet
facet normal  0.831469274005 -0 0.555570739317
  outer loop
    vertex  -83.847476043701 -3.949628601074 -91.877962141037
    vertex  -84.71456817627 -19.887128601074 -90.580268769264
    vertex  -83.847476043701 -19.887128601074 -91.877962141037
  endloop
endfacet
facet normal  -0.980785276372 -0.19509034228 -0
  outer loop
    vertex  -47.369048633575 -11.918378601074 -88.988099365234
    vertex  -47.68875459671 -10.311108360291 -99.11097076416
    vertex  -47.369048633575 -11.918378601074 -99.11097076416
  endloop
endfacet
facet normal  0 0 -1
  outer loop
    vertex  -114.349341430664 -13.525648841858 -99.11097076416
    vertex  -118.998099365234 -16.132281074524 -99.11097076416
    vertex  -114.669051208496 -11.918378601074 -99.11097076416
  endloop
endfacet
facet normal  -0.831469274005 0 0.555570739317
  outer loop
    vertex  -78.190623321533 -19.887128601074 -91.877962141037
    vertex  -77.323531188965 -19.887128601074 -90.580268769264
    vertex  -77.323531188965 -3.949628601074 -90.580268769264
  endloop
endfacet
facet normal  0 -0 1
  outer loop
    vertex  -73.177145996094 -13.950913677216 -88.988099365234
    vertex  -74.019047775269 -14.118378410339 -88.988099365234
    vertex  -77.031268157959 -19.887128601074 -88.988099365234
  endloop
endfacet
facet normal  -0.195090426554 0.980785259609 -0
  outer loop
    vertex  -49.961778202057 -15.798672447205 -99.11097076416
    vertex  -51.569048919678 -16.118378648758 -88.988099365234
    vertex  -49.961778202057 -15.798672447205 -88.988099365234
  endloop
endfacet
facet normal  -0 0 1
  outer loop
    vertex  -76.051585235596 -12.760282287598 -88.988099365234
    vertex  -77.031268157959 -19.887128601074 -88.988099365234
    vertex  -75.574683227539 -13.474013576508 -88.988099365234
  endloop
endfacet
facet normal  -0.555570811082 0 0.831469226053
  outer loop
    vertex  -78.190623321533 -3.949628601074 -91.877962141037
    vertex  -79.488314666748 -19.887128601074 -92.745053081512
    vertex  -78.190623321533 -19.887128601074 -91.877962141037
  endloop
endfacet
facet normal  -0 -0 1
  outer loop
    vertex  -85.986514129639 -11.076474914551 -88.988099365234
    vertex  -85.006827392578 -11.081663856506 -88.988099365234
    vertex  -86.463412322998 -10.362744102478 -88.988099365234
  endloop
endfacet
facet normal  0 1 0
  outer loop
    vertex  -114.918692626953 -3.949628601074 -88.988099365234
    vertex  -84.71456817627 -3.949628601074 -90.580268769264
    vertex  -83.847476043701 -3.949628601074 -91.877962141037
  endloop
endfacet
facet normal  -0 0 1
  outer loop
    vertex  -87.177145996094 -9.88584400177 -88.988099365234
    vertex  -86.463412322998 -10.362744102478 -88.988099365234
    vertex  -85.006827392578 -3.949628601074 -88.988099365234
  endloop
endfacet
facet normal  0 0 -1
  outer loop
    vertex  -49.961778202057 -15.798672447205 -99.11097076416
    vertex  -48.599200286865 -14.888227233887 -99.11097076416
    vertex  -47.11940530777 -19.887128601074 -99.11097076416
  endloop
endfacet
facet normal  -0.195090234093 0 0.980785297892
  outer loop
    vertex  -81.019049682617 -19.887128601074 -93.049535064697
    vertex  -79.488314666748 -3.949628601074 -92.745053081512
    vertex  -81.019049682617 -3.949628601074 -93.049535064697
  endloop
endfacet
facet normal  0 0 -1
  outer loop
    vertex  -106.269049682617 -11.918378601074 -99.11097076416
    vertex  -90.219050445557 -11.918378601074 -99.11097076416
    vertex  -90.051585235596 -12.760282287598 -99.11097076416
  endloop
endfacet
facet normal  -0.831470584782 0.555568777599 -0
  outer loop
    vertex  -86.463412322998 -13.474013576508 -88.988099365234
    vertex  -85.986514129639 -12.760282287598 -99.11097076416
    vertex  -86.463412322998 -13.474013576508 -99.11097076416
  endloop
endfacet
facet normal  0.831469770362 -0.555569996467 0
  outer loop
    vertex  -54.53889755249 -8.948529968262 -88.988099365234
    vertex  -55.449342765808 -10.311108360291 -99.11097076416
    vertex  -54.53889755249 -8.948529968262 -99.11097076416
  endloop
endfacet
facet normal  -0 -0 1
  outer loop
    vertex  -76.051585235596 -11.076474914551 -88.988099365234
    vertex  -75.574683227539 -10.362744102478 -88.988099365234
    vertex  -77.031268157959 -3.949628601074 -88.988099365234
  endloop
endfacet
facet normal  0.19509049523 -0.980785245949 0
  outer loop
    vertex  -74.860951461792 -9.88584400177 -99.11097076416
    vertex  -74.019047775269 -9.718378791809 -88.988099365234
    vertex  -74.860951461792 -9.88584400177 -88.988099365234
  endloop
endfacet
facet normal  -0.980785245949 0.19509049523 -0
  outer loop
    vertex  -71.819048919678 -11.918378601074 -99.11097076416
    vertex  -71.986514129639 -12.760282287598 -99.11097076416
    vertex  -71.986514129639 -12.760282287598 -88.988099365234
  endloop
endfacet
facet normal  0.555569996467 0.831469770362 0
  outer loop
    vertex  -53.176319160461 -15.798672447205 -99.11097076416
    vertex  -54.53889755249 -14.888227233887 -99.11097076416
    vertex  -54.53889755249 -14.888227233887 -88.988099365234
  endloop
endfacet
facet normal  0.555569996467 0.831469770362 0
  outer loop
    vertex  -53.176319160461 -15.798672447205 -99.11097076416
    vertex  -54.53889755249 -14.888227233887 -88.988099365234
    vertex  -53.176319160461 -15.798672447205 -88.988099365234
  endloop
endfacet
facet normal  -0.555569727641 -0.831469949985 -0
  outer loop
    vertex  -107.499197998047 -8.948529968262 -99.11097076416
    vertex  -107.499197998047 -8.948529968262 -88.988099365234
    vertex  -108.86177734375 -8.038084754944 -88.988099365234
  endloop
endfacet
facet normal  -0.555569727641 -0.831469949985 -0
  outer loop
    vertex  -107.499197998047 -8.948529968262 -99.11097076416
    vertex  -108.86177734375 -8.038084754944 -88.988099365234
    vertex  -108.86177734375 -8.038084754944 -99.11097076416
  endloop
endfacet
facet normal  0 1 0
  outer loop
    vertex  -114.918692626953 -3.949628601074 -99.11097076416
    vertex  -82.549780883789 -3.949628601074 -92.745053081512
    vertex  -81.019049682617 -3.949628601074 -93.049535064697
  endloop
endfacet
facet normal  0.555570057149 -0.831469729816 0
  outer loop
    vertex  -75.574683227539 -10.362744102478 -99.11097076416
    vertex  -74.860951461792 -9.88584400177 -99.11097076416
    vertex  -74.860951461792 -9.88584400177 -88.988099365234
  endloop
endfacet
facet normal  0.555570057149 -0.831469729816 0
  outer loop
    vertex  -75.574683227539 -10.362744102478 -99.11097076416
    vertex  -74.860951461792 -9.88584400177 -88.988099365234
    vertex  -75.574683227539 -10.362744102478 -88.988099365234
  endloop
endfacet
facet normal  1 -0 0
  outer loop
    vertex  -43.04 -7.704476127625 -88.988099365234
    vertex  -43.04 -15.807723293304 -88.988099365234
    vertex  -43.04 -15.807723293304 -99.11097076416
  endloop
endfacet
facet normal  1 -0 0
  outer loop
    vertex  -43.04 -7.704476127625 -88.988099365234
    vertex  -43.04 -15.807723293304 -99.11097076416
    vertex  -43.04 -7.704476127625 -99.11097076416
  endloop
endfacet
facet normal  -0 -1 0
  outer loop
    vertex  -81.019049682617 -19.887128601074 -93.049535064697
    vertex  -115.243247070312 -19.887128601074 -99.11097076416
    vertex  -47.11940530777 -19.887128601074 -99.11097076416
  endloop
endfacet
facet normal  0 0 -1
  outer loop
    vertex  -43.04 -15.807723293304 -99.11097076416
    vertex  -47.369048633575 -11.918378601074 -99.11097076416
    vertex  -43.04 -7.704476127625 -99.11097076416
  endloop
endfacet
facet normal  -0.555570130879 -0.831469680551 -0
  outer loop
    vertex  -48.599200286865 -8.948529968262 -99.11097076416
    vertex  -48.599200286865 -8.948529968262 -88.988099365234
    vertex  -49.961778202057 -8.038084754944 -88.988099365234
  endloop
endfacet
facet normal  -0.555570130879 -0.831469680551 -0
  outer loop
    vertex  -48.599200286865 -8.948529968262 -99.11097076416
    vertex  -49.961778202057 -8.038084754944 -88.988099365234
    vertex  -49.961778202057 -8.038084754944 -99.11097076416
  endloop
endfacet
facet normal  0 -0 1
  outer loop
    vertex  -89.574683227539 -13.474013576508 -88.988099365234
    vertex  -90.051585235596 -12.760282287598 -88.988099365234
    vertex  -108.86177734375 -15.798672447205 -88.988099365234
  endloop
endfacet
facet normal  0 -0 1
  outer loop
    vertex  -89.574683227539 -13.474013576508 -88.988099365234
    vertex  -108.86177734375 -15.798672447205 -88.988099365234
    vertex  -115.243247070312 -19.887128601074 -88.988099365234
  endloop
endfacet
facet normal  0.980785245949 0.19509049523 0
  outer loop
    vertex  -90.219050445557 -11.918378601074 -99.11097076416
    vertex  -90.219050445557 -11.918378601074 -88.988099365234
    vertex  -90.051585235596 -12.760282287598 -88.988099365234
  endloop
endfacet
facet normal  0.980785245949 0.19509049523 0
  outer loop
    vertex  -90.219050445557 -11.918378601074 -99.11097076416
    vertex  -90.051585235596 -12.760282287598 -88.988099365234
    vertex  -90.051585235596 -12.760282287598 -99.11097076416
  endloop
endfacet
facet normal  0 0 1
  outer loop
    vertex  -54.53889755249 -14.888227233887 -88.988099365234
    vertex  -71.986514129639 -12.760282287598 -88.988099365234
    vertex  -72.463414230347 -13.474013576508 -88.988099365234
  endloop
endfacet
facet normal  0 0 1
  outer loop
    vertex  -54.53889755249 -14.888227233887 -88.988099365234
    vertex  -72.463414230347 -13.474013576508 -88.988099365234
    vertex  -53.176319160461 -15.798672447205 -88.988099365234
  endloop
endfacet
facet normal  -0 0 1
  outer loop
    vertex  -88.860953369141 -9.88584400177 -88.988099365234
    vertex  -88.019049682617 -9.718378791809 -88.988099365234
    vertex  -85.006827392578 -3.949628601074 -88.988099365234
  endloop
endfacet
facet normal  -0.831470413323 -0.555569034205 -0
  outer loop
    vertex  -85.986514129639 -11.076474914551 -99.11097076416
    vertex  -85.986514129639 -11.076474914551 -88.988099365234
    vertex  -86.463412322998 -10.362744102478 -88.988099365234
  endloop
endfacet
facet normal  -0.831470413323 -0.555569034205 -0
  outer loop
    vertex  -85.986514129639 -11.076474914551 -99.11097076416
    vertex  -86.463412322998 -10.362744102478 -88.988099365234
    vertex  -86.463412322998 -10.362744102478 -99.11097076416
  endloop
endfacet
facet normal  -0.555570057149 -0.831469729816 -0
  outer loop
    vertex  -73.177145996094 -9.88584400177 -88.988099365234
    vertex  -73.177145996094 -9.88584400177 -99.11097076416
    vertex  -72.463414230347 -10.362744102478 -99.11097076416
  endloop
endfacet
facet normal  -0.555570057149 -0.831469729816 -0
  outer loop
    vertex  -73.177145996094 -9.88584400177 -88.988099365234
    vertex  -72.463414230347 -10.362744102478 -99.11097076416
    vertex  -72.463414230347 -10.362744102478 -88.988099365234
  endloop
endfacet
facet normal  0.980784830965 0.195092581479 0
  outer loop
    vertex  -114.669051208496 -11.918378601074 -88.988099365234
    vertex  -114.349341430664 -13.525648841858 -88.988099365234
    vertex  -114.349341430664 -13.525648841858 -99.11097076416
  endloop
endfacet
facet normal  0.980784830965 0.195092581479 0
  outer loop
    vertex  -114.669051208496 -11.918378601074 -88.988099365234
    vertex  -114.349341430664 -13.525648841858 -99.11097076416
    vertex  -114.669051208496 -11.918378601074 -99.11097076416
  endloop
endfacet
facet normal  -0.555569727641 0.831469949985 -0
  outer loop
    vertex  -108.86177734375 -15.798672447205 -88.988099365234
    vertex  -107.499197998047 -14.888227233887 -88.988099365234
    vertex  -107.499197998047 -14.888227233887 -99.11097076416
  endloop
endfacet
facet normal  -0.555569727641 0.831469949985 -0
  outer loop
    vertex  -108.86177734375 -15.798672447205 -88.988099365234
    vertex  -107.499197998047 -14.888227233887 -99.11097076416
    vertex  -108.86177734375 -15.798672447205 -99.11097076416
  endloop
endfacet
facet normal  0.19509048223 0.980785248535 0
  outer loop
    vertex  -51.569048919678 -16.118378648758 -88.988099365234
    vertex  -51.569048919678 -16.118378648758 -99.11097076416
    vertex  -53.176319160461 -15.798672447205 -99.11097076416
  endloop
endfacet
facet normal  0.19509048223 0.980785248535 0
  outer loop
    vertex  -51.569048919678 -16.118378648758 -88.988099365234
    vertex  -53.176319160461 -15.798672447205 -99.11097076416
    vertex  -53.176319160461 -15.798672447205 -88.988099365234
  endloop
endfacet
facet normal  0.980785276372 -0.19509034228 0
  outer loop
    vertex  -55.449342765808 -10.311108360291 -99.11097076416
    vertex  -55.449342765808 -10.311108360291 -88.988099365234
    vertex  -55.769048728943 -11.918378601074 -88.988099365234
  endloop
endfacet
facet normal  0.980785276372 -0.19509034228 0
  outer loop
    vertex  -55.449342765808 -10.311108360291 -99.11097076416
    vertex  -55.769048728943 -11.918378601074 -88.988099365234
    vertex  -55.769048728943 -11.918378601074 -99.11097076416
  endloop
endfacet
facet normal  -0.83146963595 -0.555570197629 -0
  outer loop
    vertex  -47.68875459671 -10.311108360291 -99.11097076416
    vertex  -47.68875459671 -10.311108360291 -88.988099365234
    vertex  -48.599200286865 -8.948529968262 -88.988099365234
  endloop
endfacet
facet normal  -0.83146963595 -0.555570197629 -0
  outer loop
    vertex  -47.68875459671 -10.311108360291 -99.11097076416
    vertex  -48.599200286865 -8.948529968262 -88.988099365234
    vertex  -48.599200286865 -8.948529968262 -99.11097076416
  endloop
endfacet
facet normal  -0 -0 1
  outer loop
    vertex  -53.176319160461 -15.798672447205 -88.988099365234
    vertex  -72.463414230347 -13.474013576508 -88.988099365234
    vertex  -73.177145996094 -13.950913677216 -88.988099365234
  endloop
endfacet
facet normal  -0 -0 1
  outer loop
    vertex  -53.176319160461 -15.798672447205 -88.988099365234
    vertex  -73.177145996094 -13.950913677216 -88.988099365234
    vertex  -47.11940530777 -19.887128601074 -88.988099365234
  endloop
endfacet
facet normal  -0.555569030726 -0.831470415648 -0
  outer loop
    vertex  -86.463412322998 -10.362744102478 -99.11097076416
    vertex  -86.463412322998 -10.362744102478 -88.988099365234
    vertex  -87.177145996094 -9.88584400177 -88.988099365234
  endloop
endfacet
facet normal  -0.555569030726 -0.831470415648 -0
  outer loop
    vertex  -86.463412322998 -10.362744102478 -99.11097076416
    vertex  -87.177145996094 -9.88584400177 -88.988099365234
    vertex  -87.177145996094 -9.88584400177 -99.11097076416
  endloop
endfacet
facet normal  0 0 -1
  outer loop
    vertex  -49.961778202057 -8.038084754944 -99.11097076416
    vertex  -51.569048919678 -7.718378791809 -99.11097076416
    vertex  -46.79484752655 -3.949628601074 -99.11097076416
  endloop
endfacet
facet normal  0 0 -1
  outer loop
    vertex  -49.961778202057 -8.038084754944 -99.11097076416
    vertex  -46.79484752655 -3.949628601074 -99.11097076416
    vertex  -43.04 -7.704476127625 -99.11097076416
  endloop
endfacet
facet normal  0 1 0
  outer loop
    vertex  -79.488314666748 -3.949628601074 -92.745053081512
    vertex  -46.79484752655 -3.949628601074 -99.11097076416
    vertex  -81.019049682617 -3.949628601074 -93.049535064697
  endloop
endfacet
facet normal  0 0 1
  outer loop
    vertex  -77.031268157959 -3.949628601074 -88.988099365234
    vertex  -73.177145996094 -9.88584400177 -88.988099365234
    vertex  -72.463414230347 -10.362744102478 -88.988099365234
  endloop
endfacet
facet normal  -0 0 1
  outer loop
    vertex  -77.031268157959 -3.949628601074 -88.988099365234
    vertex  -72.463414230347 -10.362744102478 -88.988099365234
    vertex  -46.79484752655 -3.949628601074 -88.988099365234
  endloop
endfacet
facet normal  0.555571083574 -0.83146904398 0
  outer loop
    vertex  -88.860953369141 -9.88584400177 -99.11097076416
    vertex  -88.860953369141 -9.88584400177 -88.988099365234
    vertex  -89.574683227539 -10.362744102478 -88.988099365234
  endloop
endfacet
facet normal  0.555571083574 -0.83146904398 0
  outer loop
    vertex  -88.860953369141 -9.88584400177 -99.11097076416
    vertex  -89.574683227539 -10.362744102478 -88.988099365234
    vertex  -89.574683227539 -10.362744102478 -99.11097076416
  endloop
endfacet
facet normal  0 -0 1
  outer loop
    vertex  -107.499197998047 -14.888227233887 -88.988099365234
    vertex  -108.86177734375 -15.798672447205 -88.988099365234
    vertex  -90.051585235596 -12.760282287598 -88.988099365234
  endloop
endfacet
facet normal  0.195090453631 -0.980785254223 0
  outer loop
    vertex  -112.076315917969 -8.038084754944 -88.988099365234
    vertex  -112.076315917969 -8.038084754944 -99.11097076416
    vertex  -110.469046630859 -7.718378791809 -99.11097076416
  endloop
endfacet
facet normal  0.195090453631 -0.980785254223 0
  outer loop
    vertex  -112.076315917969 -8.038084754944 -88.988099365234
    vertex  -110.469046630859 -7.718378791809 -99.11097076416
    vertex  -110.469046630859 -7.718378791809 -88.988099365234
  endloop
endfacet
facet normal  0 0 1
  outer loop
    vertex  -85.006827392578 -19.887128601074 -88.988099365234
    vertex  -88.019049682617 -14.118378410339 -88.988099365234
    vertex  -88.860953369141 -13.950913677216 -88.988099365234
  endloop
endfacet
facet normal  0 0 -1
  outer loop
    vertex  -114.669051208496 -11.918378601074 -99.11097076416
    vertex  -118.998099365234 -16.132281074524 -99.11097076416
    vertex  -118.998099365234 -8.029034385681 -99.11097076416
  endloop
endfacet
facet normal  0.980785245949 0.19509049523 0
  outer loop
    vertex  -76.219050445557 -11.918378601074 -99.11097076416
    vertex  -76.219050445557 -11.918378601074 -88.988099365234
    vertex  -76.051585235596 -12.760282287598 -88.988099365234
  endloop
endfacet
facet normal  0.980785245949 0.19509049523 0
  outer loop
    vertex  -76.219050445557 -11.918378601074 -99.11097076416
    vertex  -76.051585235596 -12.760282287598 -88.988099365234
    vertex  -76.051585235596 -12.760282287598 -99.11097076416
  endloop
endfacet
facet normal  0.195090701769 -0 0.980785204866
  outer loop
    vertex  -81.019049682617 -3.949628601074 -93.049535064697
    vertex  -82.549780883789 -3.949628601074 -92.745053081512
    vertex  -82.549780883789 -19.887128601074 -92.745053081512
  endloop
endfacet
facet normal  0.195090701769 -0 0.980785204866
  outer loop
    vertex  -81.019049682617 -3.949628601074 -93.049535064697
    vertex  -82.549780883789 -19.887128601074 -92.745053081512
    vertex  -81.019049682617 -19.887128601074 -93.049535064697
  endloop
endfacet
facet normal  -0.980790879911 0 -0.195062169277
  outer loop
    vertex  -77.019049682617 -3.949628601074 -89.049535005093
    vertex  -77.019049682617 -19.887128601074 -89.049535005093
    vertex  -77.031268157959 -19.887128601074 -88.988099365234
  endloop
endfacet
facet normal  -0.980790879911 0 -0.195062169277
  outer loop
    vertex  -77.019049682617 -3.949628601074 -89.049535005093
    vertex  -77.031268157959 -19.887128601074 -88.988099365234
    vertex  -77.031268157959 -3.949628601074 -88.988099365234
  endloop
endfacet
facet normal  0.980785276372 0.19509034228 0
  outer loop
    vertex  -55.769048728943 -11.918378601074 -99.11097076416
    vertex  -55.769048728943 -11.918378601074 -88.988099365234
    vertex  -55.449342765808 -13.525648841858 -88.988099365234
  endloop
endfacet
facet normal  0.980785276372 0.19509034228 0
  outer loop
    vertex  -55.769048728943 -11.918378601074 -99.11097076416
    vertex  -55.449342765808 -13.525648841858 -88.988099365234
    vertex  -55.449342765808 -13.525648841858 -99.11097076416
  endloop
endfacet
facet normal  0 0 1
  outer loop
    vertex  -112.076315917969 -8.038084754944 -88.988099365234
    vertex  -110.469046630859 -7.718378791809 -88.988099365234
    vertex  -114.918692626953 -3.949628601074 -88.988099365234
  endloop
endfacet
facet normal  -0 0 1
  outer loop
    vertex  -112.076315917969 -8.038084754944 -88.988099365234
    vertex  -114.918692626953 -3.949628601074 -88.988099365234
    vertex  -118.998099365234 -8.029034385681 -88.988099365234
  endloop
endfacet
facet normal  0 0 -1
  outer loop
    vertex  -53.176319160461 -8.038084754944 -99.11097076416
    vertex  -46.79484752655 -3.949628601074 -99.11097076416
    vertex  -51.569048919678 -7.718378791809 -99.11097076416
  endloop
endfacet
facet normal  -0.19509092039 -0.980785161379 -0
  outer loop
    vertex  -74.019047775269 -9.718378791809 -88.988099365234
    vertex  -74.019047775269 -9.718378791809 -99.11097076416
    vertex  -73.177145996094 -9.88584400177 -99.11097076416
  endloop
endfacet
facet normal  -0.19509092039 -0.980785161379 -0
  outer loop
    vertex  -74.019047775269 -9.718378791809 -88.988099365234
    vertex  -73.177145996094 -9.88584400177 -99.11097076416
    vertex  -73.177145996094 -9.88584400177 -88.988099365234
  endloop
endfacet
facet normal  0.19509034228 -0.980785276372 0
  outer loop
    vertex  -51.569048919678 -7.718378791809 -99.11097076416
    vertex  -51.569048919678 -7.718378791809 -88.988099365234
    vertex  -53.176319160461 -8.038084754944 -88.988099365234
  endloop
endfacet
facet normal  0.19509034228 -0.980785276372 0
  outer loop
    vertex  -51.569048919678 -7.718378791809 -99.11097076416
    vertex  -53.176319160461 -8.038084754944 -88.988099365234
    vertex  -53.176319160461 -8.038084754944 -99.11097076416
  endloop
endfacet
facet normal  0.195090593581 0.980785226385 0
  outer loop
    vertex  -112.076315917969 -15.798672447205 -88.988099365234
    vertex  -110.469046630859 -16.118378648758 -88.988099365234
    vertex  -110.469046630859 -16.118378648758 -99.11097076416
  endloop
endfacet
facet normal  0.195090593581 0.980785226385 0
  outer loop
    vertex  -112.076315917969 -15.798672447205 -88.988099365234
    vertex  -110.469046630859 -16.118378648758 -99.11097076416
    vertex  -112.076315917969 -15.798672447205 -99.11097076416
  endloop
endfacet
facet normal  0 -0 1
  outer loop
    vertex  -55.769048728943 -11.918378601074 -88.988099365234
    vertex  -55.449342765808 -10.311108360291 -88.988099365234
    vertex  -71.819048919678 -11.918378601074 -88.988099365234
  endloop
endfacet
facet normal  0 -0 1
  outer loop
    vertex  -55.769048728943 -11.918378601074 -88.988099365234
    vertex  -71.819048919678 -11.918378601074 -88.988099365234
    vertex  -71.986514129639 -12.760282287598 -88.988099365234
  endloop
endfacet
facet normal  -0.19509049523 -0.980785245949 -0
  outer loop
    vertex  -87.177145996094 -9.88584400177 -99.11097076416
    vertex  -87.177145996094 -9.88584400177 -88.988099365234
    vertex  -88.019049682617 -9.718378791809 -88.988099365234
  endloop
endfacet
facet normal  -0.19509049523 -0.980785245949 -0
  outer loop
    vertex  -87.177145996094 -9.88584400177 -99.11097076416
    vertex  -88.019049682617 -9.718378791809 -88.988099365234
    vertex  -88.019049682617 -9.718378791809 -99.11097076416
  endloop
endfacet
facet normal  -0 -1 -0
  outer loop
    vertex  -82.549780883789 -19.887128601074 -92.745053081512
    vertex  -115.243247070312 -19.887128601074 -99.11097076416
    vertex  -81.019049682617 -19.887128601074 -93.049535064697
  endloop
endfacet
facet normal  0.831469770362 0.555569996467 0
  outer loop
    vertex  -55.449342765808 -13.525648841858 -88.988099365234
    vertex  -54.53889755249 -14.888227233887 -88.988099365234
    vertex  -54.53889755249 -14.888227233887 -99.11097076416
  endloop
endfacet
facet normal  0.831469770362 0.555569996467 0
  outer loop
    vertex  -55.449342765808 -13.525648841858 -88.988099365234
    vertex  -54.53889755249 -14.888227233887 -99.11097076416
    vertex  -55.449342765808 -13.525648841858 -99.11097076416
  endloop
endfacet
facet normal  -0.980785276372 0.19509034228 -0
  outer loop
    vertex  -106.269049682617 -11.918378601074 -88.988099365234
    vertex  -106.269049682617 -11.918378601074 -99.11097076416
    vertex  -106.588755645752 -13.525648841858 -99.11097076416
  endloop
endfacet
facet normal  -0.980785276372 0.19509034228 -0
  outer loop
    vertex  -106.269049682617 -11.918378601074 -88.988099365234
    vertex  -106.588755645752 -13.525648841858 -99.11097076416
    vertex  -106.588755645752 -13.525648841858 -88.988099365234
  endloop
endfacet
facet normal  0 0 -1
  outer loop
    vertex  -86.463412322998 -10.362744102478 -99.11097076416
    vertex  -87.177145996094 -9.88584400177 -99.11097076416
    vertex  -74.860951461792 -9.88584400177 -99.11097076416
  endloop
endfacet
facet normal  -0.831470576838 -0.555568789487 -0
  outer loop
    vertex  -107.499197998047 -8.948529968262 -88.988099365234
    vertex  -107.499197998047 -8.948529968262 -99.11097076416
    vertex  -106.588755645752 -10.311108360291 -99.11097076416
  endloop
endfacet
facet normal  -0.831470576838 -0.555568789487 -0
  outer loop
    vertex  -107.499197998047 -8.948529968262 -88.988099365234
    vertex  -106.588755645752 -10.311108360291 -99.11097076416
    vertex  -106.588755645752 -10.311108360291 -88.988099365234
  endloop
endfacet
facet normal  0 0 -1
  outer loop
    vertex  -53.176319160461 -15.798672447205 -99.11097076416
    vertex  -51.569048919678 -16.118378648758 -99.11097076416
    vertex  -73.177145996094 -13.950913677216 -99.11097076416
  endloop
endfacet
facet normal  0 0 -1
  outer loop
    vertex  -74.860951461792 -13.950913677216 -99.11097076416
    vertex  -74.019047775269 -14.118378410339 -99.11097076416
    vertex  -87.177145996094 -13.950913677216 -99.11097076416
  endloop
endfacet
facet normal  0 0 -1
  outer loop
    vertex  -74.860951461792 -13.950913677216 -99.11097076416
    vertex  -87.177145996094 -13.950913677216 -99.11097076416
    vertex  -86.463412322998 -13.474013576508 -99.11097076416
  endloop
endfacet
facet normal  0 -0 1
  outer loop
    vertex  -48.599200286865 -8.948529968262 -88.988099365234
    vertex  -47.68875459671 -10.311108360291 -88.988099365234
    vertex  -43.04 -7.704476127625 -88.988099365234
  endloop
endfacet
facet normal  -0 0 1
  outer loop
    vertex  -113.438895263672 -14.888227233887 -88.988099365234
    vertex  -114.349341430664 -13.525648841858 -88.988099365234
    vertex  -118.998099365234 -16.132281074524 -88.988099365234
  endloop
endfacet
facet normal  0 -0 1
  outer loop
    vertex  -106.588755645752 -13.525648841858 -88.988099365234
    vertex  -107.499197998047 -14.888227233887 -88.988099365234
    vertex  -90.051585235596 -12.760282287598 -88.988099365234
  endloop
endfacet
facet normal  0 -0 1
  outer loop
    vertex  -106.588755645752 -13.525648841858 -88.988099365234
    vertex  -90.051585235596 -12.760282287598 -88.988099365234
    vertex  -90.219050445557 -11.918378601074 -88.988099365234
  endloop
endfacet
facet normal  0 0 -1
  outer loop
    vertex  -47.68875459671 -13.525648841858 -99.11097076416
    vertex  -47.369048633575 -11.918378601074 -99.11097076416
    vertex  -43.04 -15.807723293304 -99.11097076416
  endloop
endfacet
facet normal  0 0 -1
  outer loop
    vertex  -88.019049682617 -14.118378410339 -99.11097076416
    vertex  -87.177145996094 -13.950913677216 -99.11097076416
    vertex  -74.019047775269 -14.118378410339 -99.11097076416
  endloop
endfacet
facet normal  0 0 -1
  outer loop
    vertex  -74.019047775269 -14.118378410339 -99.11097076416
    vertex  -73.177145996094 -13.950913677216 -99.11097076416
    vertex  -51.569048919678 -16.118378648758 -99.11097076416
  endloop
endfacet
facet normal  0 0 -1
  outer loop
    vertex  -114.349341430664 -10.311108360291 -99.11097076416
    vertex  -114.669051208496 -11.918378601074 -99.11097076416
    vertex  -118.998099365234 -8.029034385681 -99.11097076416
  endloop
endfacet
facet normal  0 0 -1
  outer loop
    vertex  -88.019049682617 -9.718378791809 -99.11097076416
    vertex  -88.860953369141 -9.88584400177 -99.11097076416
    vertex  -108.86177734375 -8.038084754944 -99.11097076416
  endloop
endfacet
facet normal  0 0 -1
  outer loop
    vertex  -88.019049682617 -9.718378791809 -99.11097076416
    vertex  -108.86177734375 -8.038084754944 -99.11097076416
    vertex  -114.918692626953 -3.949628601074 -99.11097076416
  endloop
endfacet
facet normal  -0 0 1
  outer loop
    vertex  -43.04 -7.704476127625 -88.988099365234
    vertex  -47.68875459671 -10.311108360291 -88.988099365234
    vertex  -47.369048633575 -11.918378601074 -88.988099365234
  endloop
endfacet
facet normal  0 0 1
  outer loop
    vertex  -43.04 -7.704476127625 -88.988099365234
    vertex  -47.369048633575 -11.918378601074 -88.988099365234
    vertex  -43.04 -15.807723293304 -88.988099365234
  endloop
endfacet
facet normal  0 -0 1
  outer loop
    vertex  -118.998099365234 -16.132281074524 -88.988099365234
    vertex  -114.349341430664 -13.525648841858 -88.988099365234
    vertex  -114.669051208496 -11.918378601074 -88.988099365234
  endloop
endfacet
facet normal  -0 0 1
  outer loop
    vertex  -118.998099365234 -16.132281074524 -88.988099365234
    vertex  -114.669051208496 -11.918378601074 -88.988099365234
    vertex  -118.998099365234 -8.029034385681 -88.988099365234
  endloop
endfacet
facet normal  0 -1 0
  outer loop
    vertex  -47.11940530777 -19.887128601074 -99.11097076416
    vertex  -79.488314666748 -19.887128601074 -92.745053081512
    vertex  -81.019049682617 -19.887128601074 -93.049535064697
  endloop
endfacet
facet normal  0.980784830965 -0.195092581479 0
  outer loop
    vertex  -114.349341430664 -10.311108360291 -88.988099365234
    vertex  -114.669051208496 -11.918378601074 -88.988099365234
    vertex  -114.669051208496 -11.918378601074 -99.11097076416
  endloop
endfacet
facet normal  0.980784830965 -0.195092581479 0
  outer loop
    vertex  -114.349341430664 -10.311108360291 -88.988099365234
    vertex  -114.669051208496 -11.918378601074 -99.11097076416
    vertex  -114.349341430664 -10.311108360291 -99.11097076416
  endloop
endfacet
facet normal  0 0 -1
  outer loop
    vertex  -89.574683227539 -13.474013576508 -99.11097076416
    vertex  -107.499197998047 -14.888227233887 -99.11097076416
    vertex  -106.588755645752 -13.525648841858 -99.11097076416
  endloop
endfacet
facet normal  0 0 -1
  outer loop
    vertex  -89.574683227539 -13.474013576508 -99.11097076416
    vertex  -106.588755645752 -13.525648841858 -99.11097076416
    vertex  -90.051585235596 -12.760282287598 -99.11097076416
  endloop
endfacet
facet normal  0 0 -1
  outer loop
    vertex  -107.499197998047 -14.888227233887 -99.11097076416
    vertex  -89.574683227539 -13.474013576508 -99.11097076416
    vertex  -88.860953369141 -13.950913677216 -99.11097076416
  endloop
endfacet
facet normal  0 0 -1
  outer loop
    vertex  -107.499197998047 -14.888227233887 -99.11097076416
    vertex  -88.860953369141 -13.950913677216 -99.11097076416
    vertex  -108.86177734375 -15.798672447205 -99.11097076416
  endloop
endfacet
facet normal  -0.831469386898 -0.555570570361 -0
  outer loop
    vertex  -72.463414230347 -10.362744102478 -99.11097076416
    vertex  -71.986514129639 -11.076474914551 -99.11097076416
    vertex  -71.986514129639 -11.076474914551 -88.988099365234
  endloop
endfacet
facet normal  -0.831469386898 -0.555570570361 -0
  outer loop
    vertex  -72.463414230347 -10.362744102478 -99.11097076416
    vertex  -71.986514129639 -11.076474914551 -88.988099365234
    vertex  -72.463414230347 -10.362744102478 -88.988099365234
  endloop
endfacet
facet normal  0 0 -1
  outer loop
    vertex  -88.860953369141 -9.88584400177 -99.11097076416
    vertex  -89.574683227539 -10.362744102478 -99.11097076416
    vertex  -107.499197998047 -8.948529968262 -99.11097076416
  endloop
endfacet
facet normal  0 0 -1
  outer loop
    vertex  -88.860953369141 -9.88584400177 -99.11097076416
    vertex  -107.499197998047 -8.948529968262 -99.11097076416
    vertex  -108.86177734375 -8.038084754944 -99.11097076416
  endloop
endfacet
facet normal  0 0 -1
  outer loop
    vertex  -89.574683227539 -10.362744102478 -99.11097076416
    vertex  -90.051585235596 -11.076474914551 -99.11097076416
    vertex  -106.588755645752 -10.311108360291 -99.11097076416
  endloop
endfacet
facet normal  0 0 -1
  outer loop
    vertex  -89.574683227539 -10.362744102478 -99.11097076416
    vertex  -106.588755645752 -10.311108360291 -99.11097076416
    vertex  -107.499197998047 -8.948529968262 -99.11097076416
  endloop
endfacet
facet normal  0.707106781187 0.707106781187 0
  outer loop
    vertex  -43.04 -7.704476127625 -99.11097076416
    vertex  -46.79484752655 -3.949628601074 -99.11097076416
    vertex  -46.79484752655 -3.949628601074 -88.988099365234
  endloop
endfacet
facet normal  0.707106781187 0.707106781187 0
  outer loop
    vertex  -43.04 -7.704476127625 -99.11097076416
    vertex  -46.79484752655 -3.949628601074 -88.988099365234
    vertex  -43.04 -7.704476127625 -88.988099365234
  endloop
endfacet
facet normal  -0.195090453631 -0.980785254223 -0
  outer loop
    vertex  -108.86177734375 -8.038084754944 -99.11097076416
    vertex  -108.86177734375 -8.038084754944 -88.988099365234
    vertex  -110.469046630859 -7.718378791809 -88.988099365234
  endloop
endfacet
facet normal  -0.195090453631 -0.980785254223 -0
  outer loop
    vertex  -108.86177734375 -8.038084754944 -99.11097076416
    vertex  -110.469046630859 -7.718378791809 -88.988099365234
    vertex  -110.469046630859 -7.718378791809 -99.11097076416
  endloop
endfacet
facet normal  0.831469501537 0.555570398792 0
  outer loop
    vertex  -113.438895263672 -14.888227233887 -99.11097076416
    vertex  -114.349341430664 -13.525648841858 -99.11097076416
    vertex  -114.349341430664 -13.525648841858 -88.988099365234
  endloop
endfacet
facet normal  0.831469501537 0.555570398792 0
  outer loop
    vertex  -113.438895263672 -14.888227233887 -99.11097076416
    vertex  -114.349341430664 -13.525648841858 -88.988099365234
    vertex  -113.438895263672 -14.888227233887 -88.988099365234
  endloop
endfacet
facet normal  -0.980785276372 0.19509034228 -0
  outer loop
    vertex  -47.68875459671 -13.525648841858 -88.988099365234
    vertex  -47.369048633575 -11.918378601074 -88.988099365234
    vertex  -47.369048633575 -11.918378601074 -99.11097076416
  endloop
endfacet
facet normal  -0.980785276372 0.19509034228 -0
  outer loop
    vertex  -47.68875459671 -13.525648841858 -88.988099365234
    vertex  -47.369048633575 -11.918378601074 -99.11097076416
    vertex  -47.68875459671 -13.525648841858 -99.11097076416
  endloop
endfacet
facet normal  0.555570057149 0.831469729816 0
  outer loop
    vertex  -75.574683227539 -13.474013576508 -88.988099365234
    vertex  -74.860951461792 -13.950913677216 -88.988099365234
    vertex  -74.860951461792 -13.950913677216 -99.11097076416
  endloop
endfacet
facet normal  0.555570057149 0.831469729816 0
  outer loop
    vertex  -75.574683227539 -13.474013576508 -88.988099365234
    vertex  -74.860951461792 -13.950913677216 -99.11097076416
    vertex  -75.574683227539 -13.474013576508 -99.11097076416
  endloop
endfacet
facet normal  0 1 0
  outer loop
    vertex  -46.79484752655 -3.949628601074 -99.11097076416
    vertex  -79.488314666748 -3.949628601074 -92.745053081512
    vertex  -78.190623321533 -3.949628601074 -91.877962141037
  endloop
endfacet
facet normal  -0 -0 1
  outer loop
    vertex  -89.574683227539 -10.362744102478 -88.988099365234
    vertex  -108.86177734375 -8.038084754944 -88.988099365234
    vertex  -107.499197998047 -8.948529968262 -88.988099365234
  endloop
endfacet
facet normal  -0 0 1
  outer loop
    vertex  -89.574683227539 -10.362744102478 -88.988099365234
    vertex  -107.499197998047 -8.948529968262 -88.988099365234
    vertex  -90.051585235596 -11.076474914551 -88.988099365234
  endloop
endfacet
facet normal  0 -0 1
  outer loop
    vertex  -108.86177734375 -8.038084754944 -88.988099365234
    vertex  -89.574683227539 -10.362744102478 -88.988099365234
    vertex  -88.860953369141 -9.88584400177 -88.988099365234
  endloop
endfacet
facet normal  0 0 1
  outer loop
    vertex  -108.86177734375 -8.038084754944 -88.988099365234
    vertex  -88.860953369141 -9.88584400177 -88.988099365234
    vertex  -110.469046630859 -7.718378791809 -88.988099365234
  endloop
endfacet
facet normal  -0 -0 1
  outer loop
    vertex  -85.006827392578 -19.887128601074 -88.988099365234
    vertex  -88.860953369141 -13.950913677216 -88.988099365234
    vertex  -89.574683227539 -13.474013576508 -88.988099365234
  endloop
endfacet
facet normal  -0 0 1
  outer loop
    vertex  -85.006827392578 -19.887128601074 -88.988099365234
    vertex  -89.574683227539 -13.474013576508 -88.988099365234
    vertex  -115.243247070312 -19.887128601074 -88.988099365234
  endloop
endfacet
facet normal  -0.195089960875 0.980785352239 -0
  outer loop
    vertex  -88.019049682617 -14.118378410339 -88.988099365234
    vertex  -87.177145996094 -13.950913677216 -88.988099365234
    vertex  -87.177145996094 -13.950913677216 -99.11097076416
  endloop
endfacet
facet normal  -0.195089960875 0.980785352239 -0
  outer loop
    vertex  -88.019049682617 -14.118378410339 -88.988099365234
    vertex  -87.177145996094 -13.950913677216 -99.11097076416
    vertex  -88.019049682617 -14.118378410339 -99.11097076416
  endloop
endfacet
facet normal  -0.555569030726 0.831470415648 -0
  outer loop
    vertex  -87.177145996094 -13.950913677216 -88.988099365234
    vertex  -86.463412322998 -13.474013576508 -88.988099365234
    vertex  -86.463412322998 -13.474013576508 -99.11097076416
  endloop
endfacet
facet normal  -0.555569030726 0.831470415648 -0
  outer loop
    vertex  -87.177145996094 -13.950913677216 -88.988099365234
    vertex  -86.463412322998 -13.474013576508 -99.11097076416
    vertex  -87.177145996094 -13.950913677216 -99.11097076416
  endloop
endfacet
facet normal  0.831468360473 -0.555572106511 0
  outer loop
    vertex  -90.051585235596 -11.076474914551 -88.988099365234
    vertex  -90.051585235596 -11.076474914551 -99.11097076416
    vertex  -89.574683227539 -10.362744102478 -99.11097076416
  endloop
endfacet
facet normal  0.831468360473 -0.555572106511 0
  outer loop
    vertex  -90.051585235596 -11.076474914551 -88.988099365234
    vertex  -89.574683227539 -10.362744102478 -99.11097076416
    vertex  -89.574683227539 -10.362744102478 -88.988099365234
  endloop
endfacet
facet normal  0 0 1
  outer loop
    vertex  -110.469046630859 -7.718378791809 -88.988099365234
    vertex  -88.860953369141 -9.88584400177 -88.988099365234
    vertex  -85.006827392578 -3.949628601074 -88.988099365234
  endloop
endfacet
facet normal  -0 0 1
  outer loop
    vertex  -110.469046630859 -7.718378791809 -88.988099365234
    vertex  -85.006827392578 -3.949628601074 -88.988099365234
    vertex  -114.918692626953 -3.949628601074 -88.988099365234
  endloop
endfacet
facet normal  0 0 -1
  outer loop
    vertex  -90.051585235596 -11.076474914551 -99.11097076416
    vertex  -90.219050445557 -11.918378601074 -99.11097076416
    vertex  -106.269049682617 -11.918378601074 -99.11097076416
  endloop
endfacet
facet normal  0 0 -1
  outer loop
    vertex  -90.051585235596 -11.076474914551 -99.11097076416
    vertex  -106.269049682617 -11.918378601074 -99.11097076416
    vertex  -106.588755645752 -10.311108360291 -99.11097076416
  endloop
endfacet
facet normal  -0 -1 0
  outer loop
    vertex  -115.243247070312 -19.887128601074 -99.11097076416
    vertex  -82.549780883789 -19.887128601074 -92.745053081512
    vertex  -83.847476043701 -19.887128601074 -91.877962141037
  endloop
endfacet
facet normal  -0.980785276372 -0.19509034228 -0
  outer loop
    vertex  -106.588755645752 -10.311108360291 -99.11097076416
    vertex  -106.269049682617 -11.918378601074 -99.11097076416
    vertex  -106.269049682617 -11.918378601074 -88.988099365234
  endloop
endfacet
facet normal  -0.980785276372 -0.19509034228 -0
  outer loop
    vertex  -106.588755645752 -10.311108360291 -99.11097076416
    vertex  -106.269049682617 -11.918378601074 -88.988099365234
    vertex  -106.588755645752 -10.311108360291 -88.988099365234
  endloop
endfacet
facet normal  0 0 -1
  outer loop
    vertex  -108.86177734375 -15.798672447205 -99.11097076416
    vertex  -88.860953369141 -13.950913677216 -99.11097076416
    vertex  -88.019049682617 -14.118378410339 -99.11097076416
  endloop
endfacet
facet normal  0 0 -1
  outer loop
    vertex  -108.86177734375 -15.798672447205 -99.11097076416
    vertex  -88.019049682617 -14.118378410339 -99.11097076416
    vertex  -115.243247070312 -19.887128601074 -99.11097076416
  endloop
endfacet
facet normal  0 0 1
  outer loop
    vertex  -106.588755645752 -10.311108360291 -88.988099365234
    vertex  -106.269049682617 -11.918378601074 -88.988099365234
    vertex  -90.219050445557 -11.918378601074 -88.988099365234
  endloop
endfacet
facet normal  0 0 1
  outer loop
    vertex  -106.588755645752 -10.311108360291 -88.988099365234
    vertex  -90.219050445557 -11.918378601074 -88.988099365234
    vertex  -90.051585235596 -11.076474914551 -88.988099365234
  endloop
endfacet
facet normal  0 0 -1
  outer loop
    vertex  -74.019047775269 -9.718378791809 -99.11097076416
    vertex  -88.019049682617 -9.718378791809 -99.11097076416
    vertex  -114.918692626953 -3.949628601074 -99.11097076416
  endloop
endfacet
facet normal  0 0 -1
  outer loop
    vertex  -74.019047775269 -9.718378791809 -99.11097076416
    vertex  -114.918692626953 -3.949628601074 -99.11097076416
    vertex  -46.79484752655 -3.949628601074 -99.11097076416
  endloop
endfacet
facet normal  0 0 -1
  outer loop
    vertex  -86.463412322998 -10.362744102478 -99.11097076416
    vertex  -74.860951461792 -9.88584400177 -99.11097076416
    vertex  -75.574683227539 -10.362744102478 -99.11097076416
  endloop
endfacet
facet normal  0 0 -1
  outer loop
    vertex  -86.463412322998 -10.362744102478 -99.11097076416
    vertex  -75.574683227539 -10.362744102478 -99.11097076416
    vertex  -85.986514129639 -11.076474914551 -99.11097076416
  endloop
endfacet
facet normal  -0.831470576838 0.555568789487 -0
  outer loop
    vertex  -106.588755645752 -13.525648841858 -99.11097076416
    vertex  -107.499197998047 -14.888227233887 -99.11097076416
    vertex  -107.499197998047 -14.888227233887 -88.988099365234
  endloop
endfacet
facet normal  -0.831470576838 0.555568789487 -0
  outer loop
    vertex  -106.588755645752 -13.525648841858 -99.11097076416
    vertex  -107.499197998047 -14.888227233887 -88.988099365234
    vertex  -106.588755645752 -13.525648841858 -88.988099365234
  endloop
endfacet
facet normal  -0 0 1
  outer loop
    vertex  -54.53889755249 -8.948529968262 -88.988099365234
    vertex  -53.176319160461 -8.038084754944 -88.988099365234
    vertex  -72.463414230347 -10.362744102478 -88.988099365234
  endloop
endfacet
facet normal  -0 -0 1
  outer loop
    vertex  -54.53889755249 -8.948529968262 -88.988099365234
    vertex  -72.463414230347 -10.362744102478 -88.988099365234
    vertex  -71.986514129639 -11.076474914551 -88.988099365234
  endloop
endfacet
facet normal  -0 -1 0
  outer loop
    vertex  -78.190623321533 -19.887128601074 -91.877962141037
    vertex  -79.488314666748 -19.887128601074 -92.745053081512
    vertex  -47.11940530777 -19.887128601074 -99.11097076416
  endloop
endfacet
facet normal  -0 0 1
  outer loop
    vertex  -49.961778202057 -8.038084754944 -88.988099365234
    vertex  -48.599200286865 -8.948529968262 -88.988099365234
    vertex  -43.04 -7.704476127625 -88.988099365234
  endloop
endfacet
facet normal  -0 -0 1
  outer loop
    vertex  -49.961778202057 -8.038084754944 -88.988099365234
    vertex  -43.04 -7.704476127625 -88.988099365234
    vertex  -46.79484752655 -3.949628601074 -88.988099365234
  endloop
endfacet
facet normal  0 0 -1
  outer loop
    vertex  -48.599200286865 -14.888227233887 -99.11097076416
    vertex  -47.68875459671 -13.525648841858 -99.11097076416
    vertex  -43.04 -15.807723293304 -99.11097076416
  endloop
endfacet
facet normal  0 0 -1
  outer loop
    vertex  -48.599200286865 -14.888227233887 -99.11097076416
    vertex  -43.04 -15.807723293304 -99.11097076416
    vertex  -47.11940530777 -19.887128601074 -99.11097076416
  endloop
endfacet
facet normal  0 0 -1
  outer loop
    vertex  -113.438895263672 -8.948529968262 -99.11097076416
    vertex  -114.349341430664 -10.311108360291 -99.11097076416
    vertex  -118.998099365234 -8.029034385681 -99.11097076416
  endloop
endfacet
facet normal  0 0 -1
  outer loop
    vertex  -113.438895263672 -8.948529968262 -99.11097076416
    vertex  -118.998099365234 -8.029034385681 -99.11097076416
    vertex  -114.918692626953 -3.949628601074 -99.11097076416
  endloop
endfacet
facet normal  0 0 -1
  outer loop
    vertex  -76.051585235596 -12.760282287598 -99.11097076416
    vertex  -75.574683227539 -13.474013576508 -99.11097076416
    vertex  -85.986514129639 -12.760282287598 -99.11097076416
  endloop
endfacet
facet normal  0 0 -1
  outer loop
    vertex  -54.53889755249 -14.888227233887 -99.11097076416
    vertex  -53.176319160461 -15.798672447205 -99.11097076416
    vertex  -73.177145996094 -13.950913677216 -99.11097076416
  endloop
endfacet
facet normal  0 0 -1
  outer loop
    vertex  -54.53889755249 -14.888227233887 -99.11097076416
    vertex  -73.177145996094 -13.950913677216 -99.11097076416
    vertex  -72.463414230347 -13.474013576508 -99.11097076416
  endloop
endfacet
facet normal  -0 0 1
  outer loop
    vertex  -53.176319160461 -8.038084754944 -88.988099365234
    vertex  -51.569048919678 -7.718378791809 -88.988099365234
    vertex  -46.79484752655 -3.949628601074 -88.988099365234
  endloop
endfacet
facet normal  -0 0 1
  outer loop
    vertex  -53.176319160461 -8.038084754944 -88.988099365234
    vertex  -46.79484752655 -3.949628601074 -88.988099365234
    vertex  -72.463414230347 -10.362744102478 -88.988099365234
  endloop
endfacet
facet normal  0 0 -1
  outer loop
    vertex  -75.574683227539 -13.474013576508 -99.11097076416
    vertex  -74.860951461792 -13.950913677216 -99.11097076416
    vertex  -86.463412322998 -13.474013576508 -99.11097076416
  endloop
endfacet
facet normal  0 0 -1
  outer loop
    vertex  -75.574683227539 -13.474013576508 -99.11097076416
    vertex  -86.463412322998 -13.474013576508 -99.11097076416
    vertex  -85.986514129639 -12.760282287598 -99.11097076416
  endloop
endfacet
facet normal  0 0 -1
  outer loop
    vertex  -88.019049682617 -14.118378410339 -99.11097076416
    vertex  -74.019047775269 -14.118378410339 -99.11097076416
    vertex  -51.569048919678 -16.118378648758 -99.11097076416
  endloop
endfacet
facet normal  0 0 -1
  outer loop
    vertex  -88.019049682617 -14.118378410339 -99.11097076416
    vertex  -51.569048919678 -16.118378648758 -99.11097076416
    vertex  -47.11940530777 -19.887128601074 -99.11097076416
  endloop
endfacet
facet normal  0 1 0
  outer loop
    vertex  -46.79484752655 -3.949628601074 -99.11097076416
    vertex  -78.190623321533 -3.949628601074 -91.877962141037
    vertex  -77.323531188965 -3.949628601074 -90.580268769264
  endloop
endfacet
facet normal  0 1 0
  outer loop
    vertex  -46.79484752655 -3.949628601074 -99.11097076416
    vertex  -77.323531188965 -3.949628601074 -90.580268769264
    vertex  -46.79484752655 -3.949628601074 -88.988099365234
  endloop
endfacet
facet normal  0 0 -1
  outer loop
    vertex  -73.177145996094 -9.88584400177 -99.11097076416
    vertex  -53.176319160461 -8.038084754944 -99.11097076416
    vertex  -54.53889755249 -8.948529968262 -99.11097076416
  endloop
endfacet
facet normal  0 0 -1
  outer loop
    vertex  -73.177145996094 -9.88584400177 -99.11097076416
    vertex  -54.53889755249 -8.948529968262 -99.11097076416
    vertex  -72.463414230347 -10.362744102478 -99.11097076416
  endloop
endfacet
facet normal  0 0 -1
  outer loop
    vertex  -53.176319160461 -8.038084754944 -99.11097076416
    vertex  -73.177145996094 -9.88584400177 -99.11097076416
    vertex  -74.019047775269 -9.718378791809 -99.11097076416
  endloop
endfacet
facet normal  0 0 -1
  outer loop
    vertex  -53.176319160461 -8.038084754944 -99.11097076416
    vertex  -74.019047775269 -9.718378791809 -99.11097076416
    vertex  -46.79484752655 -3.949628601074 -99.11097076416
  endloop
endfacet
facet normal  0 -1 -0
  outer loop
    vertex  -115.243247070312 -19.887128601074 -99.11097076416
    vertex  -83.847476043701 -19.887128601074 -91.877962141037
    vertex  -84.71456817627 -19.887128601074 -90.580268769264
  endloop
endfacet
facet normal  -0 -1 -0
  outer loop
    vertex  -115.243247070312 -19.887128601074 -99.11097076416
    vertex  -84.71456817627 -19.887128601074 -90.580268769264
    vertex  -115.243247070312 -19.887128601074 -88.988099365234
  endloop
endfacet
facet normal  -0 -1 -0
  outer loop
    vertex  -77.323531188965 -19.887128601074 -90.580268769264
    vertex  -78.190623321533 -19.887128601074 -91.877962141037
    vertex  -47.11940530777 -19.887128601074 -99.11097076416
  endloop
endfacet
facet normal  -0 -1 -0
  outer loop
    vertex  -77.323531188965 -19.887128601074 -90.580268769264
    vertex  -47.11940530777 -19.887128601074 -99.11097076416
    vertex  -47.11940530777 -19.887128601074 -88.988099365234
  endloop
endfacet
facet normal  0 0 -1
  outer loop
    vertex  -76.051585235596 -12.760282287598 -99.11097076416
    vertex  -85.986514129639 -12.760282287598 -99.11097076416
    vertex  -85.819048919678 -11.918378601074 -99.11097076416
  endloop
endfacet
facet normal  0 1 0
  outer loop
    vertex  -83.847476043701 -3.949628601074 -91.877962141037
    vertex  -82.549780883789 -3.949628601074 -92.745053081512
    vertex  -114.918692626953 -3.949628601074 -99.11097076416
  endloop
endfacet
facet normal  0 1 0
  outer loop
    vertex  -83.847476043701 -3.949628601074 -91.877962141037
    vertex  -114.918692626953 -3.949628601074 -99.11097076416
    vertex  -114.918692626953 -3.949628601074 -88.988099365234
  endloop
endfacet
facet normal  0.195089960875 0.980785352239 0
  outer loop
    vertex  -88.860953369141 -13.950913677216 -99.11097076416
    vertex  -88.860953369141 -13.950913677216 -88.988099365234
    vertex  -88.019049682617 -14.118378410339 -88.988099365234
  endloop
endfacet
facet normal  0.195089960875 0.980785352239 0
  outer loop
    vertex  -88.860953369141 -13.950913677216 -99.11097076416
    vertex  -88.019049682617 -14.118378410339 -88.988099365234
    vertex  -88.019049682617 -14.118378410339 -99.11097076416
  endloop
endfacet
facet normal  0 0 -1
  outer loop
    vertex  -76.219050445557 -11.918378601074 -99.11097076416
    vertex  -76.051585235596 -12.760282287598 -99.11097076416
    vertex  -85.819048919678 -11.918378601074 -99.11097076416
  endloop
endfacet
facet normal  0 0 -1
  outer loop
    vertex  -76.219050445557 -11.918378601074 -99.11097076416
    vertex  -85.819048919678 -11.918378601074 -99.11097076416
    vertex  -85.986514129639 -11.076474914551 -99.11097076416
  endloop
endfacet
facet normal  0.555571083574 0.83146904398 0
  outer loop
    vertex  -89.574683227539 -13.474013576508 -99.11097076416
    vertex  -89.574683227539 -13.474013576508 -88.988099365234
    vertex  -88.860953369141 -13.950913677216 -88.988099365234
  endloop
endfacet
facet normal  0.555571083574 0.83146904398 0
  outer loop
    vertex  -89.574683227539 -13.474013576508 -99.11097076416
    vertex  -88.860953369141 -13.950913677216 -88.988099365234
    vertex  -88.860953369141 -13.950913677216 -99.11097076416
  endloop
endfacet
facet normal  0.980785245949 -0.19509049523 0
  outer loop
    vertex  -76.219050445557 -11.918378601074 -88.988099365234
    vertex  -76.219050445557 -11.918378601074 -99.11097076416
    vertex  -76.051585235596 -11.076474914551 -99.11097076416
  endloop
endfacet
facet normal  0.980785245949 -0.19509049523 0
  outer loop
    vertex  -76.219050445557 -11.918378601074 -88.988099365234
    vertex  -76.051585235596 -11.076474914551 -99.11097076416
    vertex  -76.051585235596 -11.076474914551 -88.988099365234
  endloop
endfacet
facet normal  0 0 -1
  outer loop
    vertex  -55.449342765808 -10.311108360291 -99.11097076416
    vertex  -71.986514129639 -11.076474914551 -99.11097076416
    vertex  -72.463414230347 -10.362744102478 -99.11097076416
  endloop
endfacet
facet normal  0 0 -1
  outer loop
    vertex  -55.449342765808 -10.311108360291 -99.11097076416
    vertex  -72.463414230347 -10.362744102478 -99.11097076416
    vertex  -54.53889755249 -8.948529968262 -99.11097076416
  endloop
endfacet
facet normal  -0.980785245949 -0.19509049523 -0
  outer loop
    vertex  -85.819048919678 -11.918378601074 -99.11097076416
    vertex  -85.819048919678 -11.918378601074 -88.988099365234
    vertex  -85.986514129639 -11.076474914551 -88.988099365234
  endloop
endfacet
facet normal  -0.980785245949 -0.19509049523 -0
  outer loop
    vertex  -85.819048919678 -11.918378601074 -99.11097076416
    vertex  -85.986514129639 -11.076474914551 -88.988099365234
    vertex  -85.986514129639 -11.076474914551 -99.11097076416
  endloop
endfacet
facet normal  -0.195090286604 -0.980785287447 -0
  outer loop
    vertex  -49.961778202057 -8.038084754944 -99.11097076416
    vertex  -49.961778202057 -8.038084754944 -88.988099365234
    vertex  -51.569048919678 -7.718378791809 -88.988099365234
  endloop
endfacet
facet normal  -0.195090286604 -0.980785287447 -0
  outer loop
    vertex  -49.961778202057 -8.038084754944 -99.11097076416
    vertex  -51.569048919678 -7.718378791809 -88.988099365234
    vertex  -51.569048919678 -7.718378791809 -99.11097076416
  endloop
endfacet
facet normal  -0 -0 1
  outer loop
    vertex  -112.076315917969 -15.798672447205 -88.988099365234
    vertex  -113.438895263672 -14.888227233887 -88.988099365234
    vertex  -118.998099365234 -16.132281074524 -88.988099365234
  endloop
endfacet
facet normal  -0 -0 1
  outer loop
    vertex  -112.076315917969 -15.798672447205 -88.988099365234
    vertex  -118.998099365234 -16.132281074524 -88.988099365234
    vertex  -115.243247070312 -19.887128601074 -88.988099365234
  endloop
endfacet
facet normal  -0.707106332201 -0.707107230172 -0
  outer loop
    vertex  -115.243247070312 -19.887128601074 -88.988099365234
    vertex  -118.998099365234 -16.132281074524 -88.988099365234
    vertex  -118.998099365234 -16.132281074524 -99.11097076416
  endloop
endfacet
facet normal  -0.707106332201 -0.707107230172 -0
  outer loop
    vertex  -115.243247070312 -19.887128601074 -88.988099365234
    vertex  -118.998099365234 -16.132281074524 -99.11097076416
    vertex  -115.243247070312 -19.887128601074 -99.11097076416
  endloop
endfacet
facet normal  0 0 -1
  outer loop
    vertex  -72.463414230347 -13.474013576508 -99.11097076416
    vertex  -71.986514129639 -12.760282287598 -99.11097076416
    vertex  -55.449342765808 -13.525648841858 -99.11097076416
  endloop
endfacet
facet normal  0 0 -1
  outer loop
    vertex  -72.463414230347 -13.474013576508 -99.11097076416
    vertex  -55.449342765808 -13.525648841858 -99.11097076416
    vertex  -54.53889755249 -14.888227233887 -99.11097076416
  endloop
endfacet
facet normal  -0 0 1
  outer loop
    vertex  -55.449342765808 -10.311108360291 -88.988099365234
    vertex  -54.53889755249 -8.948529968262 -88.988099365234
    vertex  -71.986514129639 -11.076474914551 -88.988099365234
  endloop
endfacet
facet normal  -0 0 1
  outer loop
    vertex  -55.449342765808 -10.311108360291 -88.988099365234
    vertex  -71.986514129639 -11.076474914551 -88.988099365234
    vertex  -71.819048919678 -11.918378601074 -88.988099365234
  endloop
endfacet
facet normal  0 0 -1
  outer loop
    vertex  -88.019049682617 -9.718378791809 -99.11097076416
    vertex  -74.019047775269 -9.718378791809 -99.11097076416
    vertex  -74.860951461792 -9.88584400177 -99.11097076416
  endloop
endfacet
facet normal  0 0 -1
  outer loop
    vertex  -88.019049682617 -9.718378791809 -99.11097076416
    vertex  -74.860951461792 -9.88584400177 -99.11097076416
    vertex  -87.177145996094 -9.88584400177 -99.11097076416
  endloop
endfacet
endsolid
